<svg width="1020" height="148" viewBox="0 0 1020 148" fill="none" xmlns="http://www.w3.org/2000/svg">
<path d="M44.9807 5.28447C40.7125 5.28447 37.6637 6.91047 34.3101 13.0079L0.97728 74.0843C0.265908 75.4054 0.570782 76.4216 2.2984 76.4216H15.5096C16.7291 76.4216 17.3388 76.1168 17.847 75.1005L24.859 61.991H72.6226L79.8379 75.1005C80.346 76.1168 80.8541 76.4216 82.1753 76.4216H95.0816C96.7076 76.4216 97.0125 75.4054 96.3011 74.0843L62.6634 13.0079C59.3097 6.91047 56.1594 5.28447 50.9765 5.28447H44.9807ZM47.2164 20.4265C47.5213 19.9184 47.8262 19.7152 48.3343 19.7152H48.9441C49.4522 19.7152 49.757 19.9184 50.0619 20.4265L66.2202 50.2025H31.2614L47.2164 20.4265Z" fill="#C27A38"/>
<path d="M44.9807 5.28447C40.7125 5.28447 37.6637 6.91047 34.3101 13.0079L0.97728 74.0843C0.265908 75.4054 0.570782 76.4216 2.2984 76.4216H15.5096C16.7291 76.4216 17.3388 76.1168 17.847 75.1005L24.859 61.991H72.6226L79.8379 75.1005C80.346 76.1168 80.8541 76.4216 82.1753 76.4216H95.0816C96.7076 76.4216 97.0125 75.4054 96.3011 74.0843L62.6634 13.0079C59.3097 6.91047 56.1594 5.28447 50.9765 5.28447H44.9807ZM47.2164 20.4265C47.5213 19.9184 47.8262 19.7152 48.3343 19.7152H48.9441C49.4522 19.7152 49.757 19.9184 50.0619 20.4265L66.2202 50.2025H31.2614L47.2164 20.4265Z" fill="url(#paint0_radial)" fill-opacity="0.46" style="mix-blend-mode:soft-light"/>
<path d="M122.658 20.6298C104.366 20.6298 98.4717 26.524 98.4717 41.2596V55.8935C98.4717 70.629 104.366 76.4216 122.658 76.4216H160.869V96.6449C160.869 98.1693 161.581 98.8807 163.105 98.8807H173.064C174.588 98.8807 175.3 98.1693 175.3 96.6449V41.2596C175.3 26.524 169.406 20.6298 151.113 20.6298H122.658ZM113.004 53.048V44.0034C113.004 35.467 115.341 32.8247 124.081 32.8247H149.69C158.532 32.8247 160.869 35.467 160.869 44.0034V64.2267H124.081C115.341 64.2267 113.004 61.6861 113.004 53.048Z" fill="#C27A38"/>
<path d="M122.658 20.6298C104.366 20.6298 98.4717 26.524 98.4717 41.2596V55.8935C98.4717 70.629 104.366 76.4216 122.658 76.4216H160.869V96.6449C160.869 98.1693 161.581 98.8807 163.105 98.8807H173.064C174.588 98.8807 175.3 98.1693 175.3 96.6449V41.2596C175.3 26.524 169.406 20.6298 151.113 20.6298H122.658ZM113.004 53.048V44.0034C113.004 35.467 115.341 32.8247 124.081 32.8247H149.69C158.532 32.8247 160.869 35.467 160.869 44.0034V64.2267H124.081C115.341 64.2267 113.004 61.6861 113.004 53.048Z" fill="url(#paint1_radial)" fill-opacity="0.46" style="mix-blend-mode:soft-light"/>
<path d="M187.911 20.6298C186.386 20.6298 185.573 21.4428 185.573 22.9671V55.8935C185.573 70.629 191.468 76.4216 209.76 76.4216H238.113C256.406 76.4216 262.3 70.629 262.3 55.8935V22.9671C262.3 21.4428 261.589 20.6298 260.064 20.6298H250.105C248.581 20.6298 247.869 21.4428 247.869 22.9671V52.3366C247.869 60.8731 245.532 63.5153 236.691 63.5153H210.573C201.732 63.5153 200.106 60.8731 200.106 52.3366V22.9671C200.106 21.4428 199.394 20.6298 197.87 20.6298H187.911Z" fill="#C27A38"/>
<path d="M187.911 20.6298C186.386 20.6298 185.573 21.4428 185.573 22.9671V55.8935C185.573 70.629 191.468 76.4216 209.76 76.4216H238.113C256.406 76.4216 262.3 70.629 262.3 55.8935V22.9671C262.3 21.4428 261.589 20.6298 260.064 20.6298H250.105C248.581 20.6298 247.869 21.4428 247.869 22.9671V52.3366C247.869 60.8731 245.532 63.5153 236.691 63.5153H210.573C201.732 63.5153 200.106 60.8731 200.106 52.3366V22.9671C200.106 21.4428 199.394 20.6298 197.87 20.6298H187.911Z" fill="url(#paint2_radial)" fill-opacity="0.46" style="mix-blend-mode:soft-light"/>
<path d="M274.086 20.6298C272.866 20.6298 272.257 21.2395 272.257 22.459V30.9955C272.257 32.3166 272.866 32.8247 274.086 32.8247H316.565C325.406 32.8247 327.642 35.3653 327.642 41.8693V43.8002H286.281C274.289 43.8002 270.631 48.5765 270.631 57.113V61.991C270.631 72.0518 274.289 76.4216 286.281 76.4216H334.654C340.548 76.4216 342.174 74.8973 342.174 68.2917V41.2596C342.174 26.524 336.28 20.6298 317.988 20.6298H274.086ZM324.695 65.243H290.448C286.281 65.243 284.757 63.617 284.757 59.9585V57.8244C284.757 54.5724 286.281 52.8448 290.448 52.8448H327.642V61.7877C327.642 64.3283 326.829 65.243 324.695 65.243Z" fill="#C27A38"/>
<path d="M274.086 20.6298C272.866 20.6298 272.257 21.2395 272.257 22.459V30.9955C272.257 32.3166 272.866 32.8247 274.086 32.8247H316.565C325.406 32.8247 327.642 35.3653 327.642 41.8693V43.8002H286.281C274.289 43.8002 270.631 48.5765 270.631 57.113V61.991C270.631 72.0518 274.289 76.4216 286.281 76.4216H334.654C340.548 76.4216 342.174 74.8973 342.174 68.2917V41.2596C342.174 26.524 336.28 20.6298 317.988 20.6298H274.086ZM324.695 65.243H290.448C286.281 65.243 284.757 63.617 284.757 59.9585V57.8244C284.757 54.5724 286.281 52.8448 290.448 52.8448H327.642V61.7877C327.642 64.3283 326.829 65.243 324.695 65.243Z" fill="url(#paint3_radial)" fill-opacity="0.46" style="mix-blend-mode:soft-light"/>
<path d="M353.055 0.203243C351.53 0.203243 350.717 0.914618 350.717 2.43898V55.8935C350.717 70.629 356.611 76.4216 374.904 76.4216H403.359C421.651 76.4216 427.545 70.629 427.545 55.8935V41.2596C427.545 26.524 421.651 20.6298 403.359 20.6298H365.25V2.43898C365.25 0.914618 364.538 0.203243 363.014 0.203243H353.055ZM401.936 32.8247C410.777 32.8247 413.115 35.467 413.115 44.0034V53.048C413.115 61.5845 410.777 64.2267 401.936 64.2267H376.327C367.587 64.2267 365.25 61.5845 365.25 53.048V32.8247H401.936Z" fill="#C27A38"/>
<path d="M353.055 0.203243C351.53 0.203243 350.717 0.914618 350.717 2.43898V55.8935C350.717 70.629 356.611 76.4216 374.904 76.4216H403.359C421.651 76.4216 427.545 70.629 427.545 55.8935V41.2596C427.545 26.524 421.651 20.6298 403.359 20.6298H365.25V2.43898C365.25 0.914618 364.538 0.203243 363.014 0.203243H353.055ZM401.936 32.8247C410.777 32.8247 413.115 35.467 413.115 44.0034V53.048C413.115 61.5845 410.777 64.2267 401.936 64.2267H376.327C367.587 64.2267 365.25 61.5845 365.25 53.048V32.8247H401.936Z" fill="url(#paint4_radial)" fill-opacity="0.46" style="mix-blend-mode:soft-light"/>
<path d="M439.851 20.6298C438.327 20.6298 437.616 21.4428 437.616 22.9671V74.1859C437.616 75.7103 438.327 76.4216 439.851 76.4216H449.811C451.335 76.4216 452.046 75.7103 452.046 74.1859V22.9671C452.046 21.4428 451.335 20.6298 449.811 20.6298H439.851ZM439.851 0C438.327 0 437.514 0.711369 437.514 2.23574V11.8901C437.514 13.4144 438.327 14.2274 439.851 14.2274H449.811C451.335 14.2274 452.046 13.4144 452.046 11.8901V2.23574C452.046 0.711369 451.335 0 449.811 0H439.851Z" fill="#C27A38"/>
<path d="M439.851 20.6298C438.327 20.6298 437.616 21.4428 437.616 22.9671V74.1859C437.616 75.7103 438.327 76.4216 439.851 76.4216H449.811C451.335 76.4216 452.046 75.7103 452.046 74.1859V22.9671C452.046 21.4428 451.335 20.6298 449.811 20.6298H439.851ZM439.851 0C438.327 0 437.514 0.711369 437.514 2.23574V11.8901C437.514 13.4144 438.327 14.2274 439.851 14.2274H449.811C451.335 14.2274 452.046 13.4144 452.046 11.8901V2.23574C452.046 0.711369 451.335 0 449.811 0H439.851Z" fill="url(#paint5_radial)" fill-opacity="0.46" style="mix-blend-mode:soft-light"/>
<path d="M486.145 20.6298C467.852 20.6298 461.958 26.524 461.958 41.2596V55.8935C461.958 70.629 467.852 76.4216 486.145 76.4216H514.904C533.197 76.4216 539.091 70.629 539.091 55.8935V41.2596C539.091 26.524 533.197 20.6298 514.904 20.6298H486.145ZM476.49 43.6985C476.49 35.1621 478.828 32.6215 487.567 32.6215H513.482C522.323 32.6215 524.66 35.1621 524.66 43.6985V53.3529C524.66 61.8893 522.323 64.5316 513.482 64.5316H487.567C478.828 64.5316 476.49 61.8893 476.49 53.3529V43.6985Z" fill="#C27A38"/>
<path d="M486.145 20.6298C467.852 20.6298 461.958 26.524 461.958 41.2596V55.8935C461.958 70.629 467.852 76.4216 486.145 76.4216H514.904C533.197 76.4216 539.091 70.629 539.091 55.8935V41.2596C539.091 26.524 533.197 20.6298 514.904 20.6298H486.145ZM476.49 43.6985C476.49 35.1621 478.828 32.6215 487.567 32.6215H513.482C522.323 32.6215 524.66 35.1621 524.66 43.6985V53.3529C524.66 61.8893 522.323 64.5316 513.482 64.5316H487.567C478.828 64.5316 476.49 61.8893 476.49 53.3529V43.6985Z" fill="url(#paint6_radial)" fill-opacity="0.46" style="mix-blend-mode:soft-light"/>
<path d="M572.339 20.6298C554.047 20.6298 548.152 26.524 548.152 41.3612V52.0318C548.152 66.8689 554.047 72.7632 572.339 72.7632H610.55V75.4054C610.55 84.0435 608.212 86.6857 599.371 86.6857H552.929C551.709 86.6857 551.099 87.2955 551.099 88.515V97.0514C551.099 98.2709 551.709 98.8807 552.929 98.8807H600.794C619.188 98.8807 624.98 92.9864 624.98 78.1493V41.1579C624.98 26.524 619.188 20.6298 600.794 20.6298H572.339ZM562.685 51.9301V42.1742C562.685 35.2637 565.022 32.6215 573.762 32.6215H599.371C608.212 32.6215 610.55 35.2637 610.55 42.4791V61.4828H573.762C565.022 61.4828 562.685 58.8406 562.685 51.9301Z" fill="#C27A38"/>
<path d="M572.339 20.6298C554.047 20.6298 548.152 26.524 548.152 41.3612V52.0318C548.152 66.8689 554.047 72.7632 572.339 72.7632H610.55V75.4054C610.55 84.0435 608.212 86.6857 599.371 86.6857H552.929C551.709 86.6857 551.099 87.2955 551.099 88.515V97.0514C551.099 98.2709 551.709 98.8807 552.929 98.8807H600.794C619.188 98.8807 624.98 92.9864 624.98 78.1493V41.1579C624.98 26.524 619.188 20.6298 600.794 20.6298H572.339ZM562.685 51.9301V42.1742C562.685 35.2637 565.022 32.6215 573.762 32.6215H599.371C608.212 32.6215 610.55 35.2637 610.55 42.4791V61.4828H573.762C565.022 61.4828 562.685 58.8406 562.685 51.9301Z" fill="url(#paint7_radial)" fill-opacity="0.46" style="mix-blend-mode:soft-light"/>
<path d="M659.441 20.6298C641.148 20.6298 635.254 26.524 635.254 41.2596V74.1859C635.254 75.7103 636.067 76.4216 637.591 76.4216H647.551C649.075 76.4216 649.786 75.7103 649.786 74.1859V44.0034C649.786 35.467 652.124 32.8247 660.863 32.8247H687.895C689.115 32.8247 689.725 32.3166 689.725 30.9955V22.459C689.725 21.2395 689.115 20.6298 687.895 20.6298H659.441Z" fill="#C27A38"/>
<path d="M659.441 20.6298C641.148 20.6298 635.254 26.524 635.254 41.2596V74.1859C635.254 75.7103 636.067 76.4216 637.591 76.4216H647.551C649.075 76.4216 649.786 75.7103 649.786 74.1859V44.0034C649.786 35.467 652.124 32.8247 660.863 32.8247H687.895C689.115 32.8247 689.725 32.3166 689.725 30.9955V22.459C689.725 21.2395 689.115 20.6298 687.895 20.6298H659.441Z" fill="url(#paint8_radial)" fill-opacity="0.46" style="mix-blend-mode:soft-light"/>
<path d="M697.07 20.6298C695.851 20.6298 695.241 21.2395 695.241 22.459V30.9955C695.241 32.3166 695.851 32.8247 697.07 32.8247H739.549C748.391 32.8247 750.626 35.3653 750.626 41.8693V43.8002H709.265C697.273 43.8002 693.615 48.5765 693.615 57.113V61.991C693.615 72.0518 697.273 76.4216 709.265 76.4216H757.638C763.533 76.4216 765.159 74.8973 765.159 68.2917V41.2596C765.159 26.524 759.264 20.6298 740.972 20.6298H697.07ZM747.679 65.243H713.432C709.265 65.243 707.741 63.617 707.741 59.9585V57.8244C707.741 54.5724 709.265 52.8448 713.432 52.8448H750.626V61.7877C750.626 64.3283 749.813 65.243 747.679 65.243Z" fill="#C27A38"/>
<path d="M697.07 20.6298C695.851 20.6298 695.241 21.2395 695.241 22.459V30.9955C695.241 32.3166 695.851 32.8247 697.07 32.8247H739.549C748.391 32.8247 750.626 35.3653 750.626 41.8693V43.8002H709.265C697.273 43.8002 693.615 48.5765 693.615 57.113V61.991C693.615 72.0518 697.273 76.4216 709.265 76.4216H757.638C763.533 76.4216 765.159 74.8973 765.159 68.2917V41.2596C765.159 26.524 759.264 20.6298 740.972 20.6298H697.07ZM747.679 65.243H713.432C709.265 65.243 707.741 63.617 707.741 59.9585V57.8244C707.741 54.5724 709.265 52.8448 713.432 52.8448H750.626V61.7877C750.626 64.3283 749.813 65.243 747.679 65.243Z" fill="url(#paint9_radial)" fill-opacity="0.46" style="mix-blend-mode:soft-light"/>
<path d="M797.888 20.6298C779.596 20.6298 773.701 26.524 773.701 41.2596V96.6449C773.701 98.1693 774.514 98.8807 776.039 98.8807H785.998C787.522 98.8807 788.234 98.1693 788.234 96.6449V76.4216H826.343C844.635 76.4216 850.53 70.629 850.53 55.8935V41.2596C850.53 26.524 844.635 20.6298 826.343 20.6298H797.888ZM788.234 44.0034C788.234 35.467 790.571 32.8247 799.311 32.8247H824.92C833.762 32.8247 836.099 35.467 836.099 44.0034V53.048C836.099 61.6861 833.762 64.2267 824.92 64.2267H788.234V44.0034Z" fill="#C27A38"/>
<path d="M797.888 20.6298C779.596 20.6298 773.701 26.524 773.701 41.2596V96.6449C773.701 98.1693 774.514 98.8807 776.039 98.8807H785.998C787.522 98.8807 788.234 98.1693 788.234 96.6449V76.4216H826.343C844.635 76.4216 850.53 70.629 850.53 55.8935V41.2596C850.53 26.524 844.635 20.6298 826.343 20.6298H797.888ZM788.234 44.0034C788.234 35.467 790.571 32.8247 799.311 32.8247H824.92C833.762 32.8247 836.099 35.467 836.099 44.0034V53.048C836.099 61.6861 833.762 64.2267 824.92 64.2267H788.234V44.0034Z" fill="url(#paint10_radial)" fill-opacity="0.46" style="mix-blend-mode:soft-light"/>
<path d="M862.836 0.203243C861.311 0.203243 860.6 0.914618 860.6 2.43898V74.1859C860.6 75.7103 861.311 76.4216 862.836 76.4216H872.795C874.319 76.4216 875.031 75.7103 875.031 74.1859V33.5361H912.327C921.067 33.5361 922.794 36.1783 922.794 44.7148V74.1859C922.794 75.7103 923.505 76.4216 925.03 76.4216H934.989C936.513 76.4216 937.225 75.7103 937.225 74.1859V41.2596C937.225 26.524 931.331 20.6298 913.038 20.6298H875.031V2.43898C875.031 0.914618 874.319 0.203243 872.795 0.203243H862.836Z" fill="#C27A38"/>
<path d="M862.836 0.203243C861.311 0.203243 860.6 0.914618 860.6 2.43898V74.1859C860.6 75.7103 861.311 76.4216 862.836 76.4216H872.795C874.319 76.4216 875.031 75.7103 875.031 74.1859V33.5361H912.327C921.067 33.5361 922.794 36.1783 922.794 44.7148V74.1859C922.794 75.7103 923.505 76.4216 925.03 76.4216H934.989C936.513 76.4216 937.225 75.7103 937.225 74.1859V41.2596C937.225 26.524 931.331 20.6298 913.038 20.6298H875.031V2.43898C875.031 0.914618 874.319 0.203243 872.795 0.203243H862.836Z" fill="url(#paint11_radial)" fill-opacity="0.46" style="mix-blend-mode:soft-light"/>
<path d="M1007 20.6298C1005.78 20.6298 1005.07 21.0363 1004.56 22.0525L980.678 63.5153C979.763 63.5153 979.357 63.0072 978.239 61.178L955.678 22.0525C955.17 21.0363 954.459 20.6298 953.239 20.6298H941.553C940.13 20.6298 939.52 21.8493 940.232 23.1704L967.67 70.5274C969.296 73.3729 970.82 74.5924 974.174 74.8973L968.686 84.5516C967.772 86.1776 966.247 86.889 963.504 86.889H957.508C956.288 86.889 955.678 87.4987 955.678 88.7182V97.0514C955.678 98.2709 956.288 98.8807 957.508 98.8807H964.621C973.361 98.8807 978.036 96.6449 980.678 91.9702L1019.7 23.1704C1020.41 21.8493 1019.8 20.6298 1018.38 20.6298H1007Z" fill="#C27A38"/>
<path d="M1007 20.6298C1005.78 20.6298 1005.07 21.0363 1004.56 22.0525L980.678 63.5153C979.763 63.5153 979.357 63.0072 978.239 61.178L955.678 22.0525C955.17 21.0363 954.459 20.6298 953.239 20.6298H941.553C940.13 20.6298 939.52 21.8493 940.232 23.1704L967.67 70.5274C969.296 73.3729 970.82 74.5924 974.174 74.8973L968.686 84.5516C967.772 86.1776 966.247 86.889 963.504 86.889H957.508C956.288 86.889 955.678 87.4987 955.678 88.7182V97.0514C955.678 98.2709 956.288 98.8807 957.508 98.8807H964.621C973.361 98.8807 978.036 96.6449 980.678 91.9702L1019.7 23.1704C1020.41 21.8493 1019.8 20.6298 1018.38 20.6298H1007Z" fill="url(#paint12_radial)" fill-opacity="0.46" style="mix-blend-mode:soft-light"/>
<path d="M308.202 118.508C299.908 118.508 296.706 121.465 296.706 129.348V136.411C296.706 144.294 299.908 147.251 308.202 147.251H326.721C327.337 147.251 327.624 146.963 327.624 146.347V142.323C327.624 141.707 327.337 141.42 326.721 141.42H308.449C304.22 141.42 302.988 140.147 302.988 135.795V129.964C302.988 125.612 304.22 124.38 308.449 124.38H326.721C327.337 124.38 327.624 124.051 327.624 123.436V119.412C327.624 118.796 327.337 118.508 326.721 118.508H308.202Z" fill="#D1D1D1"/>
<path d="M308.202 118.508C299.908 118.508 296.706 121.465 296.706 129.348V136.411C296.706 144.294 299.908 147.251 308.202 147.251H326.721C327.337 147.251 327.624 146.963 327.624 146.347V142.323C327.624 141.707 327.337 141.42 326.721 141.42H308.449C304.22 141.42 302.988 140.147 302.988 135.795V129.964C302.988 125.612 304.22 124.38 308.449 124.38H326.721C327.337 124.38 327.624 124.051 327.624 123.436V119.412C327.624 118.796 327.337 118.508 326.721 118.508H308.202Z" fill="url(#paint13_radial)"/>
<path d="M334.258 118.508C333.437 118.508 333.026 118.919 333.026 119.74V146.347C333.026 146.963 333.355 147.251 333.97 147.251H338.405C339.021 147.251 339.308 146.963 339.308 146.347V138.176H352.571L359.058 146.717C359.305 147.086 359.51 147.251 360.208 147.251H365.505C366.244 147.251 366.285 146.512 366.039 146.224L359.017 137.519C363.329 136.739 365.135 133.988 365.135 129.307V126.967C365.135 121.424 362.59 118.508 356.307 118.508H334.258ZM339.308 124.626C339.308 124.298 339.473 124.134 339.842 124.134H355.034C357.827 124.134 358.853 125.324 358.853 127.788V129.512C358.853 131.976 357.827 133.167 355.034 133.167H339.308V124.626Z" fill="#D1D1D1"/>
<path d="M334.258 118.508C333.437 118.508 333.026 118.919 333.026 119.74V146.347C333.026 146.963 333.355 147.251 333.97 147.251H338.405C339.021 147.251 339.308 146.963 339.308 146.347V138.176H352.571L359.058 146.717C359.305 147.086 359.51 147.251 360.208 147.251H365.505C366.244 147.251 366.285 146.512 366.039 146.224L359.017 137.519C363.329 136.739 365.135 133.988 365.135 129.307V126.967C365.135 121.424 362.59 118.508 356.307 118.508H334.258ZM339.308 124.626C339.308 124.298 339.473 124.134 339.842 124.134H355.034C357.827 124.134 358.853 125.324 358.853 127.788V129.512C358.853 131.976 357.827 133.167 355.034 133.167H339.308V124.626Z" fill="url(#paint14_radial)"/>
<path d="M372.168 118.508C371.552 118.508 371.223 118.796 371.223 119.412V146.347C371.223 146.963 371.552 147.251 372.168 147.251H376.602C377.218 147.251 377.506 146.963 377.506 146.347V119.412C377.506 118.796 377.218 118.508 376.602 118.508H372.168Z" fill="#D1D1D1"/>
<path d="M372.168 118.508C371.552 118.508 371.223 118.796 371.223 119.412V146.347C371.223 146.963 371.552 147.251 372.168 147.251H376.602C377.218 147.251 377.506 146.963 377.506 146.347V119.412C377.506 118.796 377.218 118.508 376.602 118.508H372.168Z" fill="url(#paint15_radial)"/>
<path d="M390.774 118.508C385.805 118.508 383.506 121.218 383.506 125.201V128.199C383.506 132.715 385.97 135.261 390.692 135.261H406.089C407.526 135.261 408.224 136.041 408.224 137.56V139.244C408.224 140.681 407.608 141.543 406.048 141.543H384.491C383.876 141.543 383.547 141.831 383.547 142.447V146.347C383.547 146.963 383.876 147.251 384.491 147.251H407.239C412.207 147.251 414.507 144.541 414.507 140.558V137.273C414.507 132.756 412.043 130.211 407.321 130.211H391.923C390.486 130.211 389.788 129.43 389.788 127.911V126.515C389.788 125.078 390.404 124.216 391.964 124.216H412.536C413.152 124.216 413.439 123.928 413.439 123.312V119.412C413.439 118.796 413.152 118.508 412.536 118.508H390.774Z" fill="#D1D1D1"/>
<path d="M390.774 118.508C385.805 118.508 383.506 121.218 383.506 125.201V128.199C383.506 132.715 385.97 135.261 390.692 135.261H406.089C407.526 135.261 408.224 136.041 408.224 137.56V139.244C408.224 140.681 407.608 141.543 406.048 141.543H384.491C383.876 141.543 383.547 141.831 383.547 142.447V146.347C383.547 146.963 383.876 147.251 384.491 147.251H407.239C412.207 147.251 414.507 144.541 414.507 140.558V137.273C414.507 132.756 412.043 130.211 407.321 130.211H391.923C390.486 130.211 389.788 129.43 389.788 127.911V126.515C389.788 125.078 390.404 124.216 391.964 124.216H412.536C413.152 124.216 413.439 123.928 413.439 123.312V119.412C413.439 118.796 413.152 118.508 412.536 118.508H390.774Z" fill="url(#paint16_radial)"/>
<path d="M419.41 118.508C418.794 118.508 418.466 118.796 418.466 119.412V123.436C418.466 124.051 418.794 124.38 419.41 124.38H432.303V146.347C432.303 146.963 432.59 147.251 433.206 147.251H437.682C438.298 147.251 438.585 146.963 438.585 146.347V124.38H451.478C452.094 124.38 452.423 124.051 452.423 123.436V119.412C452.423 118.796 452.094 118.508 451.478 118.508H419.41Z" fill="#D1D1D1"/>
<path d="M419.41 118.508C418.794 118.508 418.466 118.796 418.466 119.412V123.436C418.466 124.051 418.794 124.38 419.41 124.38H432.303V146.347C432.303 146.963 432.59 147.251 433.206 147.251H437.682C438.298 147.251 438.585 146.963 438.585 146.347V124.38H451.478C452.094 124.38 452.423 124.051 452.423 123.436V119.412C452.423 118.796 452.094 118.508 451.478 118.508H419.41Z" fill="url(#paint17_radial)"/>
<path d="M467.581 118.508C465.856 118.508 464.624 119.165 463.269 121.629L449.802 146.306C449.514 146.84 449.637 147.251 450.335 147.251H455.673C456.166 147.251 456.412 147.127 456.618 146.717L459.451 141.42H478.749L481.664 146.717C481.87 147.127 482.075 147.251 482.609 147.251H487.824C488.48 147.251 488.604 146.84 488.316 146.306L474.725 121.629C473.37 119.165 472.097 118.508 470.003 118.508H467.581ZM468.484 124.626C468.607 124.421 468.73 124.339 468.936 124.339H469.182C469.387 124.339 469.511 124.421 469.634 124.626L476.162 136.657H462.038L468.484 124.626Z" fill="#D1D1D1"/>
<path d="M467.581 118.508C465.856 118.508 464.624 119.165 463.269 121.629L449.802 146.306C449.514 146.84 449.637 147.251 450.335 147.251H455.673C456.166 147.251 456.412 147.127 456.618 146.717L459.451 141.42H478.749L481.664 146.717C481.87 147.127 482.075 147.251 482.609 147.251H487.824C488.48 147.251 488.604 146.84 488.316 146.306L474.725 121.629C473.37 119.165 472.097 118.508 470.003 118.508H467.581ZM468.484 124.626C468.607 124.421 468.73 124.339 468.936 124.339H469.182C469.387 124.339 469.511 124.421 469.634 124.626L476.162 136.657H462.038L468.484 124.626Z" fill="url(#paint18_radial)"/>
<path d="M492.035 118.508C491.419 118.508 491.091 118.796 491.091 119.412V136.411C491.091 144.294 494.293 147.251 502.588 147.251H519.463C520.079 147.251 520.367 146.963 520.367 146.347V142.323C520.367 141.707 520.079 141.42 519.463 141.42H502.834C498.605 141.42 497.373 140.147 497.373 135.795V119.412C497.373 118.796 497.086 118.508 496.47 118.508H492.035Z" fill="#D1D1D1"/>
<path d="M492.035 118.508C491.419 118.508 491.091 118.796 491.091 119.412V136.411C491.091 144.294 494.293 147.251 502.588 147.251H519.463C520.079 147.251 520.367 146.963 520.367 146.347V142.323C520.367 141.707 520.079 141.42 519.463 141.42H502.834C498.605 141.42 497.373 140.147 497.373 135.795V119.412C497.373 118.796 497.086 118.508 496.47 118.508H492.035Z" fill="url(#paint19_radial)"/>
<path d="M541.092 118.508C540.27 118.508 539.86 118.919 539.86 119.74V146.347C539.86 146.963 540.188 147.251 540.804 147.251H545.239C545.855 147.251 546.142 146.963 546.142 146.347V138.464H563.141C569.423 138.464 571.969 135.548 571.969 130.005V126.967C571.969 121.424 569.423 118.508 563.141 118.508H541.092ZM546.142 124.667C546.142 124.298 546.306 124.175 546.676 124.175H561.868C564.66 124.175 565.687 125.365 565.687 127.829V129.389C565.687 131.853 564.66 133.044 561.868 133.044H546.142V124.667Z" fill="#D1D1D1"/>
<path d="M541.092 118.508C540.27 118.508 539.86 118.919 539.86 119.74V146.347C539.86 146.963 540.188 147.251 540.804 147.251H545.239C545.855 147.251 546.142 146.963 546.142 146.347V138.464H563.141C569.423 138.464 571.969 135.548 571.969 130.005V126.967C571.969 121.424 569.423 118.508 563.141 118.508H541.092ZM546.142 124.667C546.142 124.298 546.306 124.175 546.676 124.175H561.868C564.66 124.175 565.687 125.365 565.687 127.829V129.389C565.687 131.853 564.66 133.044 561.868 133.044H546.142V124.667Z" fill="url(#paint20_radial)"/>
<path d="M588.223 118.508C579.929 118.508 576.726 121.465 576.726 129.348V136.411C576.726 144.294 579.929 147.251 588.223 147.251H600.911C609.246 147.251 612.408 144.294 612.408 136.411V129.348C612.408 121.465 609.246 118.508 600.911 118.508H588.223ZM583.009 129.8C583.009 125.489 584.24 124.216 588.47 124.216H600.665C604.894 124.216 606.126 125.489 606.126 129.8V135.959C606.126 140.27 604.894 141.543 600.665 141.543H588.47C584.24 141.543 583.009 140.27 583.009 135.959V129.8Z" fill="#D1D1D1"/>
<path d="M588.223 118.508C579.929 118.508 576.726 121.465 576.726 129.348V136.411C576.726 144.294 579.929 147.251 588.223 147.251H600.911C609.246 147.251 612.408 144.294 612.408 136.411V129.348C612.408 121.465 609.246 118.508 600.911 118.508H588.223ZM583.009 129.8C583.009 125.489 584.24 124.216 588.47 124.216H600.665C604.894 124.216 606.126 125.489 606.126 129.8V135.959C606.126 140.27 604.894 141.543 600.665 141.543H588.47C584.24 141.543 583.009 140.27 583.009 135.959V129.8Z" fill="url(#paint21_radial)"/>
<path d="M629.709 118.508C621.415 118.508 618.212 121.465 618.212 129.348V136.411C618.212 144.294 621.415 147.251 629.709 147.251H642.396C650.732 147.251 653.893 144.294 653.893 136.411V129.348C653.893 121.465 650.732 118.508 642.396 118.508H629.709ZM624.494 129.8C624.494 125.489 625.726 124.216 629.955 124.216H642.15C646.379 124.216 647.611 125.489 647.611 129.8V135.959C647.611 140.27 646.379 141.543 642.15 141.543H629.955C625.726 141.543 624.494 140.27 624.494 135.959V129.8Z" fill="#D1D1D1"/>
<path d="M629.709 118.508C621.415 118.508 618.212 121.465 618.212 129.348V136.411C618.212 144.294 621.415 147.251 629.709 147.251H642.396C650.732 147.251 653.893 144.294 653.893 136.411V129.348C653.893 121.465 650.732 118.508 642.396 118.508H629.709ZM624.494 129.8C624.494 125.489 625.726 124.216 629.955 124.216H642.15C646.379 124.216 647.611 125.489 647.611 129.8V135.959C647.611 140.27 646.379 141.543 642.15 141.543H629.955C625.726 141.543 624.494 140.27 624.494 135.959V129.8Z" fill="url(#paint22_radial)"/>
<path d="M660.888 118.508C660.272 118.508 659.944 118.796 659.944 119.412V136.411C659.944 144.294 663.146 147.251 671.441 147.251H688.316C688.932 147.251 689.22 146.963 689.22 146.347V142.323C689.22 141.707 688.932 141.42 688.316 141.42H671.687C667.458 141.42 666.226 140.147 666.226 135.795V119.412C666.226 118.796 665.938 118.508 665.323 118.508H660.888Z" fill="#D1D1D1"/>
<path d="M660.888 118.508C660.272 118.508 659.944 118.796 659.944 119.412V136.411C659.944 144.294 663.146 147.251 671.441 147.251H688.316C688.932 147.251 689.22 146.963 689.22 146.347V142.323C689.22 141.707 688.932 141.42 688.316 141.42H671.687C667.458 141.42 666.226 140.147 666.226 135.795V119.412C666.226 118.796 665.938 118.508 665.323 118.508H660.888Z" fill="url(#paint23_radial)"/>
<path d="M700.708 118.508C695.739 118.508 693.44 121.218 693.44 125.201V128.199C693.44 132.715 695.904 135.261 700.626 135.261H716.023C717.46 135.261 718.158 136.041 718.158 137.56V139.244C718.158 140.681 717.542 141.543 715.982 141.543H694.425C693.809 141.543 693.481 141.831 693.481 142.447V146.347C693.481 146.963 693.809 147.251 694.425 147.251H717.173C722.141 147.251 724.441 144.541 724.441 140.558V137.273C724.441 132.756 721.977 130.211 717.255 130.211H701.857C700.42 130.211 699.722 129.43 699.722 127.911V126.515C699.722 125.078 700.338 124.216 701.898 124.216H722.47C723.086 124.216 723.373 123.928 723.373 123.312V119.412C723.373 118.796 723.086 118.508 722.47 118.508H700.708Z" fill="#D1D1D1"/>
<path d="M700.708 118.508C695.739 118.508 693.44 121.218 693.44 125.201V128.199C693.44 132.715 695.904 135.261 700.626 135.261H716.023C717.46 135.261 718.158 136.041 718.158 137.56V139.244C718.158 140.681 717.542 141.543 715.982 141.543H694.425C693.809 141.543 693.481 141.831 693.481 142.447V146.347C693.481 146.963 693.809 147.251 694.425 147.251H717.173C722.141 147.251 724.441 144.541 724.441 140.558V137.273C724.441 132.756 721.977 130.211 717.255 130.211H701.857C700.42 130.211 699.722 129.43 699.722 127.911V126.515C699.722 125.078 700.338 124.216 701.898 124.216H722.47C723.086 124.216 723.373 123.928 723.373 123.312V119.412C723.373 118.796 723.086 118.508 722.47 118.508H700.708Z" fill="url(#paint24_radial)"/>
<defs>
<radialGradient id="paint0_radial" cx="0" cy="0" r="1" gradientUnits="userSpaceOnUse" gradientTransform="translate(509.863 33.8215) rotate(90) scale(107.27 779.863)">
<stop stop-color="white"/>
<stop offset="1" stop-color="white" stop-opacity="0"/>
</radialGradient>
<radialGradient id="paint1_radial" cx="0" cy="0" r="1" gradientUnits="userSpaceOnUse" gradientTransform="translate(509.863 33.8215) rotate(90) scale(107.27 779.863)">
<stop stop-color="white"/>
<stop offset="1" stop-color="white" stop-opacity="0"/>
</radialGradient>
<radialGradient id="paint2_radial" cx="0" cy="0" r="1" gradientUnits="userSpaceOnUse" gradientTransform="translate(509.863 33.8215) rotate(90) scale(107.27 779.863)">
<stop stop-color="white"/>
<stop offset="1" stop-color="white" stop-opacity="0"/>
</radialGradient>
<radialGradient id="paint3_radial" cx="0" cy="0" r="1" gradientUnits="userSpaceOnUse" gradientTransform="translate(509.863 33.8215) rotate(90) scale(107.27 779.863)">
<stop stop-color="white"/>
<stop offset="1" stop-color="white" stop-opacity="0"/>
</radialGradient>
<radialGradient id="paint4_radial" cx="0" cy="0" r="1" gradientUnits="userSpaceOnUse" gradientTransform="translate(509.863 33.8215) rotate(90) scale(107.27 779.863)">
<stop stop-color="white"/>
<stop offset="1" stop-color="white" stop-opacity="0"/>
</radialGradient>
<radialGradient id="paint5_radial" cx="0" cy="0" r="1" gradientUnits="userSpaceOnUse" gradientTransform="translate(509.863 33.8215) rotate(90) scale(107.27 779.863)">
<stop stop-color="white"/>
<stop offset="1" stop-color="white" stop-opacity="0"/>
</radialGradient>
<radialGradient id="paint6_radial" cx="0" cy="0" r="1" gradientUnits="userSpaceOnUse" gradientTransform="translate(509.863 33.8215) rotate(90) scale(107.27 779.863)">
<stop stop-color="white"/>
<stop offset="1" stop-color="white" stop-opacity="0"/>
</radialGradient>
<radialGradient id="paint7_radial" cx="0" cy="0" r="1" gradientUnits="userSpaceOnUse" gradientTransform="translate(509.863 33.8215) rotate(90) scale(107.27 779.863)">
<stop stop-color="white"/>
<stop offset="1" stop-color="white" stop-opacity="0"/>
</radialGradient>
<radialGradient id="paint8_radial" cx="0" cy="0" r="1" gradientUnits="userSpaceOnUse" gradientTransform="translate(509.863 33.8215) rotate(90) scale(107.27 779.863)">
<stop stop-color="white"/>
<stop offset="1" stop-color="white" stop-opacity="0"/>
</radialGradient>
<radialGradient id="paint9_radial" cx="0" cy="0" r="1" gradientUnits="userSpaceOnUse" gradientTransform="translate(509.863 33.8215) rotate(90) scale(107.27 779.863)">
<stop stop-color="white"/>
<stop offset="1" stop-color="white" stop-opacity="0"/>
</radialGradient>
<radialGradient id="paint10_radial" cx="0" cy="0" r="1" gradientUnits="userSpaceOnUse" gradientTransform="translate(509.863 33.8215) rotate(90) scale(107.27 779.863)">
<stop stop-color="white"/>
<stop offset="1" stop-color="white" stop-opacity="0"/>
</radialGradient>
<radialGradient id="paint11_radial" cx="0" cy="0" r="1" gradientUnits="userSpaceOnUse" gradientTransform="translate(509.863 33.8215) rotate(90) scale(107.27 779.863)">
<stop stop-color="white"/>
<stop offset="1" stop-color="white" stop-opacity="0"/>
</radialGradient>
<radialGradient id="paint12_radial" cx="0" cy="0" r="1" gradientUnits="userSpaceOnUse" gradientTransform="translate(509.863 33.8215) rotate(90) scale(107.27 779.863)">
<stop stop-color="white"/>
<stop offset="1" stop-color="white" stop-opacity="0"/>
</radialGradient>
<radialGradient id="paint13_radial" cx="0" cy="0" r="1" gradientUnits="userSpaceOnUse" gradientTransform="translate(510.89 110.809) rotate(90) scale(36.4412 273.96)">
<stop stop-color="white"/>
<stop offset="1" stop-color="#838383"/>
</radialGradient>
<radialGradient id="paint14_radial" cx="0" cy="0" r="1" gradientUnits="userSpaceOnUse" gradientTransform="translate(510.89 110.809) rotate(90) scale(36.4412 273.96)">
<stop stop-color="white"/>
<stop offset="1" stop-color="#838383"/>
</radialGradient>
<radialGradient id="paint15_radial" cx="0" cy="0" r="1" gradientUnits="userSpaceOnUse" gradientTransform="translate(510.89 110.809) rotate(90) scale(36.4412 273.96)">
<stop stop-color="white"/>
<stop offset="1" stop-color="#838383"/>
</radialGradient>
<radialGradient id="paint16_radial" cx="0" cy="0" r="1" gradientUnits="userSpaceOnUse" gradientTransform="translate(510.89 110.809) rotate(90) scale(36.4412 273.96)">
<stop stop-color="white"/>
<stop offset="1" stop-color="#838383"/>
</radialGradient>
<radialGradient id="paint17_radial" cx="0" cy="0" r="1" gradientUnits="userSpaceOnUse" gradientTransform="translate(510.89 110.809) rotate(90) scale(36.4412 273.96)">
<stop stop-color="white"/>
<stop offset="1" stop-color="#838383"/>
</radialGradient>
<radialGradient id="paint18_radial" cx="0" cy="0" r="1" gradientUnits="userSpaceOnUse" gradientTransform="translate(510.89 110.809) rotate(90) scale(36.4412 273.96)">
<stop stop-color="white"/>
<stop offset="1" stop-color="#838383"/>
</radialGradient>
<radialGradient id="paint19_radial" cx="0" cy="0" r="1" gradientUnits="userSpaceOnUse" gradientTransform="translate(510.89 110.809) rotate(90) scale(36.4412 273.96)">
<stop stop-color="white"/>
<stop offset="1" stop-color="#838383"/>
</radialGradient>
<radialGradient id="paint20_radial" cx="0" cy="0" r="1" gradientUnits="userSpaceOnUse" gradientTransform="translate(510.89 110.809) rotate(90) scale(36.4412 273.96)">
<stop stop-color="white"/>
<stop offset="1" stop-color="#838383"/>
</radialGradient>
<radialGradient id="paint21_radial" cx="0" cy="0" r="1" gradientUnits="userSpaceOnUse" gradientTransform="translate(510.89 110.809) rotate(90) scale(36.4412 273.96)">
<stop stop-color="white"/>
<stop offset="1" stop-color="#838383"/>
</radialGradient>
<radialGradient id="paint22_radial" cx="0" cy="0" r="1" gradientUnits="userSpaceOnUse" gradientTransform="translate(510.89 110.809) rotate(90) scale(36.4412 273.96)">
<stop stop-color="white"/>
<stop offset="1" stop-color="#838383"/>
</radialGradient>
<radialGradient id="paint23_radial" cx="0" cy="0" r="1" gradientUnits="userSpaceOnUse" gradientTransform="translate(510.89 110.809) rotate(90) scale(36.4412 273.96)">
<stop stop-color="white"/>
<stop offset="1" stop-color="#838383"/>
</radialGradient>
<radialGradient id="paint24_radial" cx="0" cy="0" r="1" gradientUnits="userSpaceOnUse" gradientTransform="translate(510.89 110.809) rotate(90) scale(36.4412 273.96)">
<stop stop-color="white"/>
<stop offset="1" stop-color="#838383"/>
</radialGradient>
</defs>
</svg>
