<svg width="238" height="167" viewBox="0 0 438 167" fill="none" xmlns="http://www.w3.org/2000/svg">
<path fill-rule="evenodd" clip-rule="evenodd" d="M45.6146 39C20.9746 39 1 58.8929 1 83.4321C1 107.971 20.9746 127.864 45.6146 127.864C45.6146 127.864 48.5765 128.17 51.9622 127.864C55.4956 127.545 57.997 126.412 60.5673 125.248C63.8067 123.782 67.1558 122.265 72.8186 122.265C78.3222 122.265 81.6413 123.601 85.0618 124.978C88.1789 126.233 91.3801 127.522 96.3955 127.864C98.8686 128.033 100.385 127.864 100.385 127.864C125.025 127.864 145 107.971 145 83.4321C145 58.8929 125.025 39 100.385 39H45.6146ZM46.7695 41.5287C44.3992 41.5287 42.0747 41.7238 39.8111 42.0988C19.8477 45.406 4.6272 62.7049 4.6272 83.5485C4.6272 106.755 23.4849 124.49 46.7594 124.49C46.7594 124.49 49.5572 124.779 52.7553 124.49C56.0929 124.188 58.4556 123.117 60.8835 122.016C62.4015 121.328 63.9449 120.628 65.768 120.098C67.6199 119.559 69.7604 119.194 72.4559 119.194C77.6853 119.194 81.2389 120.473 84.8806 121.784C88.1583 122.963 91.5075 124.168 96.2141 124.49C98.5501 124.649 99.9829 124.49 99.9829 124.49C123.257 124.49 141.554 106.458 141.554 83.2515C141.554 60.0446 121.78 41.5287 98.5051 41.5287H46.7695Z" fill="#2E3136"/>
<path fill-rule="evenodd" clip-rule="evenodd" d="M50.3476 107.593C19.1508 108.696 13.0629 70.4529 36.9706 60.1168C41.9904 57.9466 43.5279 53.5568 43.3528 49.6543C43.265 47.6974 42.7449 45.8896 42.0334 44.5858C41.6776 43.9335 41.2834 43.4249 40.8884 43.0853C40.8386 43.0424 40.7892 43.0026 40.7403 42.9658C40.4843 43.0033 40.229 43.0432 39.9745 43.0853C20.4837 46.3143 5.6272 63.2042 5.6272 83.5485C5.6272 106.167 24.0004 123.49 46.7594 123.49H46.8109M46.862 123.495L46.8668 123.495L46.8874 123.497C46.9062 123.499 46.9354 123.502 46.9742 123.505C47.0519 123.512 47.1683 123.522 47.3187 123.533C47.6196 123.555 48.056 123.581 48.5909 123.599C49.6629 123.634 51.1188 123.633 52.6653 123.494C55.8181 123.209 58.0444 122.205 60.4706 121.105L60.4924 121.095C61.8442 120.482 63.2698 119.836 64.9151 119.312C62.9748 114.557 61.1939 111.618 59.0772 109.868C56.8501 108.027 54.1828 107.45 50.3476 107.593M65.8789 119.027C63.9099 114.183 62.042 111.021 59.7144 109.097C57.218 107.033 54.2629 106.447 50.3114 106.593C20.2093 107.657 14.4845 70.9278 37.3674 61.0347C42.8665 58.6573 44.5402 53.8086 44.3518 49.6095C44.2578 47.5156 43.7025 45.5569 42.9113 44.1068C42.642 43.6133 42.341 43.1707 42.0148 42.7995C43.5745 42.6206 45.161 42.5287 46.7695 42.5287H98.5051C121.267 42.5287 140.554 60.636 140.554 83.2515C140.554 105.897 122.715 123.49 99.9829 123.49H99.9274L99.8734 123.496L99.8722 123.496L99.8646 123.497L99.8245 123.5C99.7871 123.504 99.7285 123.509 99.6497 123.515C99.4922 123.526 99.2542 123.54 98.9438 123.55C98.323 123.569 97.414 123.569 96.2823 123.492C91.726 123.181 88.4906 122.02 85.2192 120.843L85.1943 120.834C81.5499 119.522 77.8597 118.194 72.4559 118.194C69.8497 118.194 67.729 118.524 65.8789 119.027ZM65.768 120.098C65.6058 120.145 65.4458 120.193 65.2879 120.243C63.6706 120.752 62.2666 121.389 60.8838 122.016C58.4559 123.117 56.0929 124.188 52.7553 124.49C49.5572 124.779 46.7594 124.49 46.7594 124.49C23.4849 124.49 4.6272 106.755 4.6272 83.5485C4.6272 62.7049 19.8477 45.406 39.8111 42.0988C40.1958 42.035 40.5822 41.9765 40.9703 41.9232C42.866 41.6631 44.802 41.5287 46.7695 41.5287H98.5051C121.78 41.5287 141.554 60.0446 141.554 83.2515C141.554 106.458 123.257 124.49 99.9829 124.49C99.9829 124.49 98.5501 124.649 96.2141 124.49C91.5075 124.168 88.1583 122.963 84.8806 121.784C81.2389 120.473 77.6853 119.194 72.4559 119.194C69.7604 119.194 67.6199 119.559 65.768 120.098ZM0 83.4321C0 58.3368 20.4262 38 45.6146 38H100.385C125.574 38 146 58.3368 146 83.4321C146 108.511 125.601 128.837 100.436 128.864C100.427 128.865 100.418 128.866 100.408 128.867C100.355 128.872 100.28 128.878 100.182 128.885C99.9884 128.899 99.7074 128.916 99.3485 128.927C98.6308 128.949 97.6002 128.949 96.3274 128.862C91.1538 128.509 87.8326 127.172 84.7014 125.911L84.6884 125.906C81.294 124.539 78.1224 123.265 72.8186 123.265C67.3764 123.265 64.1877 124.707 60.9799 126.159L60.9467 126.174C58.3851 127.334 55.7541 128.526 52.0521 128.86C50.3067 129.018 48.6767 129.017 47.4859 128.978C46.8894 128.959 46.4001 128.929 46.0583 128.905C45.8872 128.892 45.7529 128.881 45.6602 128.873C45.6309 128.87 45.6057 128.868 45.5849 128.866C45.578 128.865 45.5716 128.865 45.5656 128.864C20.3998 128.838 0 108.511 0 83.4321ZM45.6146 127.864C20.9746 127.864 1 107.971 1 83.4321C1 58.8929 20.9746 39 45.6146 39H100.385C125.025 39 145 58.8929 145 83.4321C145 107.971 125.025 127.864 100.385 127.864C100.385 127.864 98.8686 128.033 96.3955 127.864C91.3801 127.522 88.1789 126.233 85.0618 124.978C81.6413 123.601 78.3222 122.265 72.8186 122.265C67.1559 122.265 63.8068 123.782 60.5675 125.248C57.9971 126.412 55.4956 127.545 51.9622 127.864C48.5765 128.17 45.6146 127.864 45.6146 127.864Z" fill="#8F9398"/>
<path fill-rule="evenodd" clip-rule="evenodd" d="M45.6146 39C20.9746 39 1 58.8929 1 83.4321C1 107.971 20.9746 127.864 45.6146 127.864C45.6146 127.864 48.5765 128.17 51.9622 127.864C55.4956 127.545 57.997 126.412 60.5674 125.248C63.8067 123.782 67.1558 122.265 72.8186 122.265C78.3222 122.265 81.6413 123.601 85.0618 124.978C88.1789 126.233 91.3801 127.522 96.3955 127.864C98.8686 128.033 100.385 127.864 100.385 127.864C125.025 127.864 145 107.971 145 83.4321C145 58.8929 125.025 39 100.385 39H45.6146ZM46.7695 41.5287C44.3992 41.5287 42.0747 41.7238 39.8111 42.0988C19.8477 45.406 4.6272 62.7049 4.6272 83.5485C4.6272 106.755 23.4849 124.49 46.7594 124.49C46.7594 124.49 49.5572 124.779 52.7553 124.49C56.0929 124.188 58.4556 123.117 60.8835 122.016C62.4015 121.328 63.9449 120.628 65.768 120.098C67.6199 119.559 69.7604 119.194 72.4559 119.194C77.6853 119.194 81.2389 120.473 84.8806 121.784C88.1583 122.963 91.5075 124.168 96.2141 124.49C98.5501 124.649 99.9829 124.49 99.9829 124.49C123.258 124.49 141.554 106.458 141.554 83.2515C141.554 60.0446 121.78 41.5287 98.5051 41.5287H46.7695Z" fill="#2E3136"/>
<path fill-rule="evenodd" clip-rule="evenodd" d="M100.385 127.864C100.385 127.864 98.8686 128.033 96.3955 127.864C91.3801 127.522 88.1789 126.233 85.0618 124.978C81.6413 123.601 78.3222 122.265 72.8186 122.265C67.1559 122.265 63.8068 123.782 60.5673 125.249C57.9969 126.412 55.4956 127.545 51.9622 127.864C48.5765 128.17 45.6146 127.864 45.6146 127.864C20.9746 127.864 1 107.971 1 83.4321C1 58.8929 20.9746 39 45.6146 39H100.385C125.025 39 145 58.8929 145 83.4321C145 107.971 125.025 127.864 100.385 127.864ZM45.5656 128.864C20.3998 128.838 0 108.511 0 83.4321C0 58.3368 20.4262 38 45.6146 38H100.385C125.574 38 146 58.3368 146 83.4321C146 108.511 125.601 128.837 100.436 128.864C100.428 128.865 100.418 128.866 100.408 128.867C100.355 128.872 100.28 128.878 100.182 128.885C99.9884 128.899 99.7074 128.916 99.3485 128.927C98.6308 128.949 97.6002 128.949 96.3274 128.862C91.1538 128.509 87.8325 127.172 84.7013 125.911L84.6884 125.906C81.294 124.539 78.1224 123.265 72.8186 123.265C67.3764 123.265 64.1878 124.707 60.9799 126.159L60.9467 126.174C58.3851 127.334 55.7541 128.526 52.0521 128.86C50.3067 129.018 48.6767 129.017 47.4859 128.978C46.8894 128.959 46.4001 128.929 46.0583 128.905C45.8872 128.892 45.7529 128.881 45.6602 128.873C45.6212 128.869 45.5896 128.866 45.5656 128.864ZM46.862 123.495L46.8622 123.495L46.8625 123.495L46.8669 123.495L46.8874 123.497C46.9062 123.499 46.9354 123.502 46.9742 123.505C47.0519 123.512 47.1683 123.522 47.3187 123.533C47.6196 123.555 48.056 123.581 48.5909 123.599C49.6629 123.634 51.1188 123.633 52.6653 123.494C55.8181 123.209 58.0444 122.205 60.4706 121.105L60.8835 122.016C58.4556 123.117 56.0929 124.188 52.7553 124.49C49.5572 124.779 46.7594 124.49 46.7594 124.49C23.4849 124.49 4.6272 106.755 4.6272 83.5485C4.6272 62.7049 19.8477 45.406 39.8111 42.0988C42.0747 41.7238 44.3992 41.5287 46.7695 41.5287H98.5051C121.78 41.5287 141.554 60.0446 141.554 83.2515C141.554 106.458 123.257 124.49 99.9829 124.49C99.9829 124.49 98.5501 124.649 96.2141 124.49C91.5075 124.168 88.1583 122.963 84.8806 121.784C81.2389 120.473 77.6853 119.194 72.4559 119.194C69.7604 119.194 67.6199 119.559 65.768 120.098C63.9449 120.628 62.4015 121.328 60.8835 122.016L60.4706 121.105L60.4924 121.095C61.9989 120.412 63.5969 119.688 65.4886 119.137C67.43 118.572 69.6645 118.194 72.4559 118.194C77.8597 118.194 81.5498 119.522 85.1943 120.834L85.2192 120.843C88.4906 122.02 91.726 123.181 96.2823 123.492C97.414 123.569 98.323 123.569 98.9438 123.55C99.2542 123.54 99.4922 123.526 99.6497 123.515C99.7285 123.509 99.7871 123.504 99.8245 123.5L99.8646 123.497L99.8722 123.496L99.8724 123.496L99.8725 123.496L99.8727 123.496L99.873 123.496L99.8734 123.496L99.9274 123.49H99.9829C122.715 123.49 140.554 105.897 140.554 83.2515C140.554 60.636 121.267 42.5287 98.5051 42.5287H46.7695C44.4542 42.5287 42.1843 42.7192 39.9745 43.0853C20.4837 46.3143 5.6272 63.2042 5.6272 83.5485C5.6272 106.167 24.0004 123.49 46.7594 123.49H46.8109M46.862 123.495L46.8619 123.495Z" fill="#2E3136"/>
</svg>
