<svg width="289" height="174" viewBox="0 0 289 174" fill="none" xmlns="http://www.w3.org/2000/svg">
<g filter="url(#filter0_b)">
<rect width="289" height="174" fill="white" fill-opacity="0.88"/>
</g>
<g filter="url(#filter1_d)">
<circle cx="144.5" cy="87.5" r="48.5" fill="white"/>
<circle cx="144.5" cy="87.5" r="47.5" stroke="black" stroke-width="2"/>
<circle cx="144.5" cy="87.5" r="47.5" stroke="#4081FE" stroke-width="2"/>
</g>
<path d="M118.457 91.168C117.459 91.168 116.553 90.9533 115.741 90.524C114.939 90.0853 114.304 89.4833 113.837 88.718C113.38 87.9433 113.151 87.0707 113.151 86.1C113.151 85.1293 113.38 84.2613 113.837 83.496C114.304 82.7213 114.939 82.1193 115.741 81.69C116.553 81.2513 117.463 81.032 118.471 81.032C119.321 81.032 120.086 81.1813 120.767 81.48C121.458 81.7787 122.037 82.208 122.503 82.768L121.047 84.112C120.385 83.3467 119.563 82.964 118.583 82.964C117.977 82.964 117.435 83.0993 116.959 83.37C116.483 83.6313 116.11 84 115.839 84.476C115.578 84.952 115.447 85.4933 115.447 86.1C115.447 86.7067 115.578 87.248 115.839 87.724C116.11 88.2 116.483 88.5733 116.959 88.844C117.435 89.1053 117.977 89.236 118.583 89.236C119.563 89.236 120.385 88.8487 121.047 88.074L122.503 89.418C122.037 89.9873 121.458 90.4213 120.767 90.72C120.077 91.0187 119.307 91.168 118.457 91.168ZM131.164 91V86.492L128.91 90.272H127.986L125.788 86.478V91H123.814V83.468H126.096L128.504 87.822L131.066 83.468H133.11L133.138 91H131.164ZM142.552 87.262C142.552 87.29 142.538 87.486 142.51 87.85H136.812C136.914 88.3167 137.157 88.6853 137.54 88.956C137.922 89.2267 138.398 89.362 138.968 89.362C139.36 89.362 139.705 89.306 140.004 89.194C140.312 89.0727 140.596 88.886 140.858 88.634L142.02 89.894C141.31 90.706 140.274 91.112 138.912 91.112C138.062 91.112 137.311 90.9487 136.658 90.622C136.004 90.286 135.5 89.824 135.146 89.236C134.791 88.648 134.614 87.9807 134.614 87.234C134.614 86.4967 134.786 85.834 135.132 85.246C135.486 84.6487 135.967 84.1867 136.574 83.86C137.19 83.524 137.876 83.356 138.632 83.356C139.369 83.356 140.036 83.5147 140.634 83.832C141.231 84.1493 141.698 84.6067 142.034 85.204C142.379 85.792 142.552 86.478 142.552 87.262ZM138.646 85.008C138.151 85.008 137.736 85.148 137.4 85.428C137.064 85.708 136.858 86.0907 136.784 86.576H140.494C140.419 86.1 140.214 85.722 139.878 85.442C139.542 85.1527 139.131 85.008 138.646 85.008ZM144.226 83.468H146.396V86.408H149.672V83.468H151.856V91H149.672V88.186H146.396V91H144.226V83.468ZM153.946 83.468H156.116V87.948L159.784 83.468H161.786V91H159.616V86.52L155.962 91H153.946V83.468ZM170.214 85.26H167.666V91H165.496V85.26H162.948V83.468H170.214V85.26ZM175.452 85.876C176.432 85.8853 177.183 86.1093 177.706 86.548C178.229 86.9773 178.49 87.5887 178.49 88.382C178.49 89.2127 178.196 89.8613 177.608 90.328C177.029 90.7853 176.213 91.014 175.158 91.014L171.378 91V83.468H173.548V85.876H175.452ZM174.962 89.46C175.382 89.4693 175.704 89.3807 175.928 89.194C176.152 89.0073 176.264 88.7273 176.264 88.354C176.264 87.99 176.152 87.724 175.928 87.556C175.713 87.388 175.391 87.2993 174.962 87.29L173.548 87.276V89.46H174.962Z" fill="#4081FF"/>
<defs>
<filter id="filter0_b" x="-4" y="-4" width="297" height="182" filterUnits="userSpaceOnUse" color-interpolation-filters="sRGB">
<feFlood flood-opacity="0" result="BackgroundImageFix"/>
<feGaussianBlur in="BackgroundImage" stdDeviation="2"/>
<feComposite in2="SourceAlpha" operator="in" result="effect1_backgroundBlur"/>
<feBlend mode="normal" in="SourceGraphic" in2="effect1_backgroundBlur" result="shape"/>
</filter>
<filter id="filter1_d" x="66" y="9" width="157" height="157" filterUnits="userSpaceOnUse" color-interpolation-filters="sRGB">
<feFlood flood-opacity="0" result="BackgroundImageFix"/>
<feColorMatrix in="SourceAlpha" type="matrix" values="0 0 0 0 0 0 0 0 0 0 0 0 0 0 0 0 0 0 127 0"/>
<feOffset/>
<feGaussianBlur stdDeviation="15"/>
<feColorMatrix type="matrix" values="0 0 0 0 0.25 0 0 0 0 0.505 0 0 0 0 1 0 0 0 0.14 0"/>
<feBlend mode="normal" in2="BackgroundImageFix" result="effect1_dropShadow"/>
<feBlend mode="normal" in="SourceGraphic" in2="effect1_dropShadow" result="shape"/>
</filter>
</defs>
</svg>
