<svg width="367" height="183" viewBox="0 0 157 157" fill="none" xmlns="http://www.w3.org/2000/svg">
<g filter="url(#filter0_d)">
<circle cx="78.5" cy="78.5" r="48.5" fill="white"/>
<circle cx="78.5" cy="78.5" r="47.5" stroke="black" stroke-width="2"/>
<circle cx="78.5" cy="78.5" r="47.5" stroke="#4081FE" stroke-width="2"/>
</g>
<path d="M52.4575 82.168C51.4588 82.168 50.5535 81.9533 49.7415 81.524C48.9388 81.0853 48.3041 80.4833 47.8375 79.718C47.3801 78.9433 47.1515 78.0707 47.1515 77.1C47.1515 76.1293 47.3801 75.2613 47.8375 74.496C48.3041 73.7213 48.9388 73.1193 49.7415 72.69C50.5535 72.2513 51.4635 72.032 52.4715 72.032C53.3208 72.032 54.0861 72.1813 54.7675 72.48C55.4581 72.7787 56.0368 73.208 56.5035 73.768L55.0475 75.112C54.3848 74.3467 53.5635 73.964 52.5835 73.964C51.9768 73.964 51.4355 74.0993 50.9595 74.37C50.4835 74.6313 50.1101 75 49.8395 75.476C49.5781 75.952 49.4475 76.4933 49.4475 77.1C49.4475 77.7067 49.5781 78.248 49.8395 78.724C50.1101 79.2 50.4835 79.5733 50.9595 79.844C51.4355 80.1053 51.9768 80.236 52.5835 80.236C53.5635 80.236 54.3848 79.8487 55.0475 79.074L56.5035 80.418C56.0368 80.9873 55.4581 81.4213 54.7675 81.72C54.0768 82.0187 53.3068 82.168 52.4575 82.168ZM65.1637 82V77.492L62.9097 81.272H61.9857L59.7877 77.478V82H57.8137V74.468H60.0957L62.5037 78.822L65.0657 74.468H67.1097L67.1377 82H65.1637ZM76.5517 78.262C76.5517 78.29 76.5377 78.486 76.5097 78.85H70.8117C70.9144 79.3167 71.157 79.6853 71.5397 79.956C71.9224 80.2267 72.3984 80.362 72.9677 80.362C73.3597 80.362 73.705 80.306 74.0037 80.194C74.3117 80.0727 74.5964 79.886 74.8577 79.634L76.0197 80.894C75.3104 81.706 74.2744 82.112 72.9117 82.112C72.0624 82.112 71.311 81.9487 70.6577 81.622C70.0044 81.286 69.5004 80.824 69.1457 80.236C68.791 79.648 68.6137 78.9807 68.6137 78.234C68.6137 77.4967 68.7864 76.834 69.1317 76.246C69.4864 75.6487 69.967 75.1867 70.5737 74.86C71.1897 74.524 71.8757 74.356 72.6317 74.356C73.369 74.356 74.0364 74.5147 74.6337 74.832C75.231 75.1493 75.6977 75.6067 76.0337 76.204C76.379 76.792 76.5517 77.478 76.5517 78.262ZM72.6457 76.008C72.151 76.008 71.7357 76.148 71.3997 76.428C71.0637 76.708 70.8584 77.0907 70.7837 77.576H74.4937C74.419 77.1 74.2137 76.722 73.8777 76.442C73.5417 76.1527 73.131 76.008 72.6457 76.008ZM78.2258 74.468H80.3958V77.408H83.6718V74.468H85.8558V82H83.6718V79.186H80.3958V82H78.2258V74.468ZM87.9465 74.468H90.1165V78.948L93.7845 74.468H95.7865V82H93.6165V77.52L89.9625 82H87.9465V74.468ZM104.214 76.26H101.666V82H99.4959V76.26H96.9479V74.468H104.214V76.26ZM109.452 76.876C110.432 76.8853 111.183 77.1093 111.706 77.548C112.229 77.9773 112.49 78.5887 112.49 79.382C112.49 80.2127 112.196 80.8613 111.608 81.328C111.029 81.7853 110.213 82.014 109.158 82.014L105.378 82V74.468H107.548V76.876H109.452ZM108.962 80.46C109.382 80.4693 109.704 80.3807 109.928 80.194C110.152 80.0073 110.264 79.7273 110.264 79.354C110.264 78.99 110.152 78.724 109.928 78.556C109.713 78.388 109.391 78.2993 108.962 78.29L107.548 78.276V80.46H108.962Z" fill="#4081FF"/>
<defs>
<filter id="filter0_d" x="0" y="0" width="375" height="182" filterUnits="userSpaceOnUse" color-interpolation-filters="sRGB">
<feFlood flood-opacity="0" result="BackgroundImageFix"/>
<feColorMatrix in="SourceAlpha" type="matrix" values="0 0 0 0 0 0 0 0 0 0 0 0 0 0 0 0 0 0 127 0"/>
<feOffset/>
<feGaussianBlur stdDeviation="15"/>
<feColorMatrix type="matrix" values="0 0 0 0 0.25 0 0 0 0 0.505 0 0 0 0 1 0 0 0 0.14 0"/>
<feBlend mode="normal" in2="BackgroundImageFix" result="effect1_dropShadow"/>
<feBlend mode="normal" in="SourceGraphic" in2="effect1_dropShadow" result="shape"/>
</filter>
</defs>
</svg>
