<svg width="367" height="183" viewBox="0 0 367 183" fill="none" xmlns="http://www.w3.org/2000/svg">
<g filter="url(#filter0_b)">
<rect y="4" width="367" height="174" fill="white" fill-opacity="0.88"/>
</g>
<g filter="url(#filter1_d)">
<circle cx="183.629" cy="91.5305" r="61.3715" fill="white"/>
<circle cx="183.629" cy="91.5305" r="60.3715" stroke="black" stroke-width="2"/>
<circle cx="183.629" cy="91.5305" r="60.3715" stroke="#4081FE" stroke-width="2"/>
</g>
<path d="M152.919 89.4659C153.723 89.6819 154.335 90.0539 154.755 90.5819C155.175 91.0979 155.385 91.7459 155.385 92.5259C155.385 93.6299 154.977 94.4879 154.161 95.0999C153.345 95.7119 152.163 96.0179 150.615 96.0179H144.639V83.4179H150.273C151.689 83.4179 152.793 83.6999 153.585 84.2639C154.377 84.8279 154.773 85.6259 154.773 86.6579C154.773 87.3179 154.611 87.8879 154.287 88.3679C153.975 88.8479 153.519 89.2139 152.919 89.4659ZM146.943 88.7999H150.075C150.831 88.7999 151.407 88.6499 151.803 88.3499C152.199 88.0499 152.397 87.6059 152.397 87.0179C152.397 86.4299 152.199 85.9859 151.803 85.6859C151.407 85.3739 150.831 85.2179 150.075 85.2179H146.943V88.7999ZM150.543 94.2179C152.199 94.2179 153.027 93.5939 153.027 92.3459C153.027 91.1219 152.199 90.5099 150.543 90.5099H146.943V94.2179H150.543ZM162.479 89.5739C163.703 89.5739 164.639 89.8499 165.287 90.4019C165.935 90.9539 166.259 91.7339 166.259 92.7419C166.259 93.7979 165.899 94.6139 165.179 95.1899C164.471 95.7659 163.463 96.0479 162.155 96.0359L157.799 96.0179V86.4059H160.049V89.5559L162.479 89.5739ZM167.501 86.4059H169.751V96.0179H167.501V86.4059ZM161.957 94.3799C162.617 94.3919 163.121 94.2539 163.469 93.9659C163.817 93.6779 163.991 93.2579 163.991 92.7059C163.991 92.1659 163.823 91.7699 163.487 91.5179C163.151 91.2659 162.641 91.1339 161.957 91.1219L160.049 91.1039V94.3619L161.957 94.3799ZM177.978 86.8739C178.89 86.8739 179.694 87.0719 180.39 87.4679C181.086 87.8519 181.626 88.3919 182.01 89.0879C182.406 89.7839 182.604 90.5819 182.604 91.4819C182.604 92.4059 182.388 93.2279 181.956 93.9479C181.524 94.6559 180.918 95.2079 180.138 95.6039C179.358 95.9999 178.47 96.1979 177.474 96.1979C175.806 96.1979 174.516 95.6459 173.604 94.5419C172.692 93.4379 172.236 91.8479 172.236 89.7719C172.236 87.8399 172.65 86.3099 173.478 85.1819C174.306 84.0539 175.572 83.3099 177.276 82.9499L181.74 81.9959L182.064 84.0119L178.014 84.8399C176.85 85.0799 175.98 85.4879 175.404 86.0639C174.828 86.6399 174.492 87.4499 174.396 88.4939C174.828 87.9779 175.35 87.5819 175.962 87.3059C176.574 87.0179 177.246 86.8739 177.978 86.8739ZM177.528 94.3799C178.356 94.3799 179.022 94.1159 179.526 93.5879C180.042 93.0479 180.3 92.3639 180.3 91.5359C180.3 90.7079 180.042 90.0419 179.526 89.5379C179.022 89.0339 178.356 88.7819 177.528 88.7819C176.688 88.7819 176.01 89.0339 175.494 89.5379C174.978 90.0419 174.72 90.7079 174.72 91.5359C174.72 92.3759 174.978 93.0599 175.494 93.5879C176.022 94.1159 176.7 94.3799 177.528 94.3799ZM190.11 86.2979C191.046 86.2979 191.88 86.5019 192.612 86.9099C193.356 87.3179 193.938 87.8939 194.358 88.6379C194.778 89.3819 194.988 90.2399 194.988 91.2119C194.988 92.1839 194.778 93.0479 194.358 93.8039C193.938 94.5479 193.356 95.1239 192.612 95.5319C191.88 95.9399 191.046 96.1439 190.11 96.1439C188.814 96.1439 187.788 95.7119 187.032 94.8479V99.5099H184.782V86.4059H186.924V87.6659C187.296 87.2099 187.752 86.8679 188.292 86.6399C188.844 86.4119 189.45 86.2979 190.11 86.2979ZM189.858 94.2179C190.686 94.2179 191.364 93.9419 191.892 93.3899C192.432 92.8379 192.702 92.1119 192.702 91.2119C192.702 90.3119 192.432 89.5859 191.892 89.0339C191.364 88.4819 190.686 88.2059 189.858 88.2059C189.318 88.2059 188.832 88.3319 188.4 88.5839C187.968 88.8239 187.626 89.1719 187.374 89.6279C187.122 90.0839 186.996 90.6119 186.996 91.2119C186.996 91.8119 187.122 92.3399 187.374 92.7959C187.626 93.2519 187.968 93.6059 188.4 93.8579C188.832 94.0979 189.318 94.2179 189.858 94.2179ZM200.686 86.2979C202.102 86.2979 203.182 86.6399 203.926 87.3239C204.682 87.9959 205.06 89.0159 205.06 90.3839V96.0179H202.936V94.8479C202.66 95.2679 202.264 95.5919 201.748 95.8199C201.244 96.0359 200.632 96.1439 199.912 96.1439C199.192 96.1439 198.562 96.0239 198.022 95.7839C197.482 95.5319 197.062 95.1899 196.762 94.7579C196.474 94.3139 196.33 93.8159 196.33 93.2639C196.33 92.3999 196.648 91.7099 197.284 91.1939C197.932 90.6659 198.946 90.4019 200.326 90.4019H202.81V90.2579C202.81 89.5859 202.606 89.0699 202.198 88.7099C201.802 88.3499 201.208 88.1699 200.416 88.1699C199.876 88.1699 199.342 88.2539 198.814 88.4219C198.298 88.5899 197.86 88.8239 197.5 89.1239L196.618 87.4859C197.122 87.1019 197.728 86.8079 198.436 86.6039C199.144 86.3999 199.894 86.2979 200.686 86.2979ZM200.38 94.5059C200.944 94.5059 201.442 94.3799 201.874 94.1279C202.318 93.8639 202.63 93.4919 202.81 93.0119V91.8959H200.488C199.192 91.8959 198.544 92.3219 198.544 93.1739C198.544 93.5819 198.706 93.9059 199.03 94.1459C199.354 94.3859 199.804 94.5059 200.38 94.5059ZM215.458 88.3139H212.092V96.0179H209.842V88.3139H206.458V86.4059H215.458V88.3139ZM221.914 89.5739C223.138 89.5739 224.074 89.8499 224.722 90.4019C225.382 90.9539 225.712 91.7339 225.712 92.7419C225.712 93.7979 225.352 94.6139 224.632 95.1899C223.912 95.7659 222.898 96.0479 221.59 96.0359L217.09 96.0179V86.4059H219.34V89.5559L221.914 89.5739ZM221.392 94.3799C222.052 94.3919 222.556 94.2539 222.904 93.9659C223.252 93.6779 223.426 93.2579 223.426 92.7059C223.426 92.1659 223.258 91.7699 222.922 91.5179C222.586 91.2659 222.076 91.1339 221.392 91.1219L219.34 91.1039V94.3619L221.392 94.3799Z" fill="#4081FF"/>
<defs>
<filter id="filter0_b" x="-4" y="0" width="375" height="182" filterUnits="userSpaceOnUse" color-interpolation-filters="sRGB">
<feFlood flood-opacity="0" result="BackgroundImageFix"/>
<feGaussianBlur in="BackgroundImage" stdDeviation="2"/>
<feComposite in2="SourceAlpha" operator="in" result="effect1_backgroundBlur"/>
<feBlend mode="normal" in="SourceGraphic" in2="effect1_backgroundBlur" result="shape"/>
</filter>
<filter id="filter1_d" x="92.2578" y="0.159058" width="182.743" height="182.743" filterUnits="userSpaceOnUse" color-interpolation-filters="sRGB">
<feFlood flood-opacity="0" result="BackgroundImageFix"/>
<feColorMatrix in="SourceAlpha" type="matrix" values="0 0 0 0 0 0 0 0 0 0 0 0 0 0 0 0 0 0 127 0"/>
<feOffset/>
<feGaussianBlur stdDeviation="15"/>
<feColorMatrix type="matrix" values="0 0 0 0 0.25 0 0 0 0 0.505 0 0 0 0 1 0 0 0 0.14 0"/>
<feBlend mode="normal" in2="BackgroundImageFix" result="effect1_dropShadow"/>
<feBlend mode="normal" in="SourceGraphic" in2="effect1_dropShadow" result="shape"/>
</filter>
</defs>
</svg>
