<svg width="22" height="23" viewBox="0 0 22 23" fill="none" xmlns="http://www.w3.org/2000/svg">
<path d="M3.85922 5.01793L3.93548 4.93157C4.26592 4.60113 4.78588 4.57571 5.14548 4.85531L5.23184 4.93157L11.0003 10.6993L16.7688 4.93157C17.1268 4.57359 17.7072 4.57359 18.0652 4.93157C18.4232 5.28955 18.4232 5.86995 18.0652 6.22793L12.2974 11.9964L18.0652 17.7649C18.3956 18.0953 18.421 18.6153 18.1414 18.9749L18.0652 19.0613C17.7347 19.3917 17.2148 19.4171 16.8552 19.1375L16.7688 19.0613L11.0003 13.2935L5.23184 19.0613C4.87386 19.4192 4.29346 19.4192 3.93548 19.0613C3.5775 18.7033 3.5775 18.1229 3.93548 17.7649L9.70324 11.9964L3.93548 6.22793C3.60503 5.89749 3.57962 5.37753 3.85922 5.01793L3.93548 4.93157L3.85922 5.01793Z" fill="#D35C5C"/>
</svg>
