<svg width="201" height="164" viewBox="0 0 201 164" fill="none" xmlns="http://www.w3.org/2000/svg">
<g filter="url(#filter0_b)">
<rect width="201" height="164" fill="white" fill-opacity="0.88"/>
</g>
<g filter="url(#filter1_d)">
<circle cx="100.5" cy="82.5" r="51.5" fill="white"/>
<circle cx="100.5" cy="82.5" r="50.5" stroke="black" stroke-width="2"/>
<circle cx="100.5" cy="82.5" r="50.5" stroke="#4081FE" stroke-width="2"/>
</g>
<path d="M78.9213 86.168C77.9227 86.168 77.0173 85.9533 76.2053 85.524C75.4027 85.0853 74.768 84.4833 74.3013 83.718C73.844 82.9433 73.6153 82.0707 73.6153 81.1C73.6153 80.1293 73.844 79.2613 74.3013 78.496C74.768 77.7213 75.4027 77.1193 76.2053 76.69C77.0173 76.2513 77.9273 76.032 78.9353 76.032C79.7847 76.032 80.55 76.1813 81.2313 76.48C81.922 76.7787 82.5007 77.208 82.9673 77.768L81.5113 79.112C80.8487 78.3467 80.0273 77.964 79.0473 77.964C78.4407 77.964 77.8993 78.0993 77.4233 78.37C76.9473 78.6313 76.574 79 76.3033 79.476C76.042 79.952 75.9113 80.4933 75.9113 81.1C75.9113 81.7067 76.042 82.248 76.3033 82.724C76.574 83.2 76.9473 83.5733 77.4233 83.844C77.8993 84.1053 78.4407 84.236 79.0473 84.236C80.0273 84.236 80.8487 83.8487 81.5113 83.074L82.9673 84.418C82.5007 84.9873 81.922 85.4213 81.2313 85.72C80.5407 86.0187 79.7707 86.168 78.9213 86.168ZM87.5955 83.144H86.4615V86H84.2775V78.468H86.4615V81.394H87.6375L89.6815 78.468H92.0055L89.3735 82.08L92.1875 86H89.6115L87.5955 83.144ZM97.698 78.356C98.398 78.356 99.0326 78.5193 99.602 78.846C100.181 79.1633 100.633 79.616 100.96 80.204C101.287 80.7827 101.45 81.4593 101.45 82.234C101.45 83.0087 101.287 83.69 100.96 84.278C100.633 84.8567 100.181 85.3093 99.602 85.636C99.0326 85.9533 98.398 86.112 97.698 86.112C96.7366 86.112 95.9806 85.8087 95.43 85.202V88.716H93.246V78.468H95.332V79.336C95.8733 78.6827 96.662 78.356 97.698 78.356ZM97.32 84.32C97.88 84.32 98.3373 84.1333 98.692 83.76C99.056 83.3773 99.238 82.8687 99.238 82.234C99.238 81.5993 99.056 81.0953 98.692 80.722C98.3373 80.3393 97.88 80.148 97.32 80.148C96.76 80.148 96.298 80.3393 95.934 80.722C95.5793 81.0953 95.402 81.5993 95.402 82.234C95.402 82.8687 95.5793 83.3773 95.934 83.76C96.298 84.1333 96.76 84.32 97.32 84.32ZM106.943 80.876C107.923 80.8853 108.665 81.1047 109.169 81.534C109.673 81.9633 109.925 82.5793 109.925 83.382C109.925 84.222 109.64 84.8707 109.071 85.328C108.501 85.7853 107.694 86.014 106.649 86.014L102.981 86V78.468H105.151V80.876H106.943ZM110.737 78.468H112.907V86H110.737V78.468ZM106.453 84.46C106.873 84.4693 107.195 84.3807 107.419 84.194C107.643 84.0073 107.755 83.7273 107.755 83.354C107.755 82.99 107.643 82.724 107.419 82.556C107.204 82.388 106.882 82.2993 106.453 82.29L105.151 82.276V84.46H106.453ZM121.34 80.26H118.792V86H116.622V80.26H114.074V78.468H121.34V80.26ZM126.578 80.876C127.558 80.8853 128.309 81.1093 128.832 81.548C129.355 81.9773 129.616 82.5887 129.616 83.382C129.616 84.2127 129.322 84.8613 128.734 85.328C128.155 85.7853 127.339 86.014 126.284 86.014L122.504 86V78.468H124.674V80.876H126.578ZM126.088 84.46C126.508 84.4693 126.83 84.3807 127.054 84.194C127.278 84.0073 127.39 83.7273 127.39 83.354C127.39 82.99 127.278 82.724 127.054 82.556C126.839 82.388 126.517 82.2993 126.088 82.29L124.674 82.276V84.46H126.088Z" fill="#4081FF"/>
<defs>
<filter id="filter0_b" x="-4" y="-4" width="209" height="172" filterUnits="userSpaceOnUse" color-interpolation-filters="sRGB">
<feFlood flood-opacity="0" result="BackgroundImageFix"/>
<feGaussianBlur in="BackgroundImage" stdDeviation="2"/>
<feComposite in2="SourceAlpha" operator="in" result="effect1_backgroundBlur"/>
<feBlend mode="normal" in="SourceGraphic" in2="effect1_backgroundBlur" result="shape"/>
</filter>
<filter id="filter1_d" x="19" y="1" width="163" height="163" filterUnits="userSpaceOnUse" color-interpolation-filters="sRGB">
<feFlood flood-opacity="0" result="BackgroundImageFix"/>
<feColorMatrix in="SourceAlpha" type="matrix" values="0 0 0 0 0 0 0 0 0 0 0 0 0 0 0 0 0 0 127 0"/>
<feOffset/>
<feGaussianBlur stdDeviation="15"/>
<feColorMatrix type="matrix" values="0 0 0 0 0.25 0 0 0 0 0.505 0 0 0 0 1 0 0 0 0.14 0"/>
<feBlend mode="normal" in2="BackgroundImageFix" result="effect1_dropShadow"/>
<feBlend mode="normal" in="SourceGraphic" in2="effect1_dropShadow" result="shape"/>
</filter>
</defs>
</svg>
