<svg width="163" height="163" viewBox="0 0 163 163" fill="none" xmlns="http://www.w3.org/2000/svg">
<g filter="url(#filter0_d)">
<circle cx="81.5" cy="81.5" r="51.5" fill="white"/>
<circle cx="81.5" cy="81.5" r="50.5" stroke="black" stroke-width="2"/>
<circle cx="81.5" cy="81.5" r="50.5" stroke="#4081FE" stroke-width="2"/>
</g>
<path d="M57.6227 75.2V85H55.3687V77.048H50.9447V85H48.6907V75.2H57.6227ZM63.412 85.112C62.6187 85.112 61.9047 84.9487 61.27 84.622C60.6447 84.286 60.1547 83.824 59.8 83.236C59.4453 82.648 59.268 81.9807 59.268 81.234C59.268 80.4873 59.4453 79.82 59.8 79.232C60.1547 78.644 60.6447 78.1867 61.27 77.86C61.9047 77.524 62.6187 77.356 63.412 77.356C64.2053 77.356 64.9147 77.524 65.54 77.86C66.1653 78.1867 66.6553 78.644 67.01 79.232C67.3647 79.82 67.542 80.4873 67.542 81.234C67.542 81.9807 67.3647 82.648 67.01 83.236C66.6553 83.824 66.1653 84.286 65.54 84.622C64.9147 84.9487 64.2053 85.112 63.412 85.112ZM63.412 83.32C63.972 83.32 64.4293 83.1333 64.784 82.76C65.148 82.3773 65.33 81.8687 65.33 81.234C65.33 80.5993 65.148 80.0953 64.784 79.722C64.4293 79.3393 63.972 79.148 63.412 79.148C62.852 79.148 62.39 79.3393 62.026 79.722C61.662 80.0953 61.48 80.5993 61.48 81.234C61.48 81.8687 61.662 82.3773 62.026 82.76C62.39 83.1333 62.852 83.32 63.412 83.32ZM72.3621 82.144H71.2281V85H69.0441V77.468H71.2281V80.394H72.4041L74.4481 77.468H76.7721L74.1401 81.08L76.9541 85H74.3781L72.3621 82.144ZM80.8158 77.356C81.9825 77.356 82.8785 77.636 83.5038 78.196C84.1292 78.7467 84.4418 79.582 84.4418 80.702V85H82.3978V84.062C81.9872 84.762 81.2218 85.112 80.1018 85.112C79.5232 85.112 79.0192 85.014 78.5898 84.818C78.1698 84.622 77.8478 84.3513 77.6238 84.006C77.3998 83.6607 77.2878 83.2687 77.2878 82.83C77.2878 82.13 77.5492 81.5793 78.0718 81.178C78.6038 80.7767 79.4205 80.576 80.5218 80.576H82.2578C82.2578 80.1 82.1132 79.736 81.8238 79.484C81.5345 79.2227 81.1005 79.092 80.5218 79.092C80.1205 79.092 79.7238 79.1573 79.3318 79.288C78.9492 79.4093 78.6225 79.5773 78.3518 79.792L77.5678 78.266C77.9785 77.9767 78.4685 77.7527 79.0378 77.594C79.6165 77.4353 80.2092 77.356 80.8158 77.356ZM80.6478 83.642C81.0212 83.642 81.3525 83.558 81.6418 83.39C81.9312 83.2127 82.1365 82.956 82.2578 82.62V81.85H80.7598C79.8638 81.85 79.4158 82.144 79.4158 82.732C79.4158 83.012 79.5232 83.236 79.7378 83.404C79.9618 83.5627 80.2652 83.642 80.6478 83.642ZM91.1567 81.08C91.6047 81.22 91.95 81.4347 92.1927 81.724C92.4447 82.0133 92.5707 82.3587 92.5707 82.76C92.5707 83.236 92.4074 83.656 92.0807 84.02C91.754 84.3747 91.306 84.65 90.7367 84.846C90.1674 85.042 89.5234 85.14 88.8047 85.14C88.2167 85.14 87.638 85.0793 87.0687 84.958C86.4994 84.8367 85.972 84.6547 85.4867 84.412L86.0747 82.886C86.868 83.2687 87.7454 83.46 88.7067 83.46C89.22 83.46 89.6214 83.3853 89.9107 83.236C90.2094 83.0773 90.3587 82.858 90.3587 82.578C90.3587 82.3353 90.256 82.1533 90.0507 82.032C89.8454 81.9013 89.5467 81.836 89.1547 81.836H87.6147V80.478H88.9587C89.3414 80.478 89.6354 80.4173 89.8407 80.296C90.046 80.1747 90.1487 79.9973 90.1487 79.764C90.1487 79.5213 90.018 79.3347 89.7567 79.204C89.5047 79.0733 89.1407 79.008 88.6647 79.008C87.9367 79.008 87.1434 79.1807 86.2847 79.526L85.7527 78.014C86.798 77.5567 87.8154 77.328 88.8047 77.328C89.486 77.328 90.0927 77.412 90.6247 77.58C91.166 77.748 91.5907 77.9953 91.8987 78.322C92.2067 78.6393 92.3607 79.0127 92.3607 79.442C92.3607 79.7967 92.2534 80.1187 92.0387 80.408C91.824 80.688 91.53 80.912 91.1567 81.08ZM97.0854 77.356C98.252 77.356 99.148 77.636 99.7734 78.196C100.399 78.7467 100.711 79.582 100.711 80.702V85H98.6674V84.062C98.2567 84.762 97.4914 85.112 96.3714 85.112C95.7927 85.112 95.2887 85.014 94.8594 84.818C94.4394 84.622 94.1174 84.3513 93.8934 84.006C93.6694 83.6607 93.5574 83.2687 93.5574 82.83C93.5574 82.13 93.8187 81.5793 94.3414 81.178C94.8734 80.7767 95.69 80.576 96.7914 80.576H98.5274C98.5274 80.1 98.3827 79.736 98.0934 79.484C97.804 79.2227 97.37 79.092 96.7914 79.092C96.39 79.092 95.9934 79.1573 95.6014 79.288C95.2187 79.4093 94.892 79.5773 94.6214 79.792L93.8374 78.266C94.248 77.9767 94.738 77.7527 95.3074 77.594C95.886 77.4353 96.4787 77.356 97.0854 77.356ZM96.9174 83.642C97.2907 83.642 97.622 83.558 97.9114 83.39C98.2007 83.2127 98.406 82.956 98.5274 82.62V81.85H97.0294C96.1334 81.85 95.6854 82.144 95.6854 82.732C95.6854 83.012 95.7927 83.236 96.0074 83.404C96.2314 83.5627 96.5347 83.642 96.9174 83.642ZM108.937 79.26H106.389V85H104.219V79.26H101.671V77.468H108.937V79.26ZM114.175 79.876C115.155 79.8853 115.906 80.1093 116.429 80.548C116.951 80.9773 117.213 81.5887 117.213 82.382C117.213 83.2127 116.919 83.8613 116.331 84.328C115.752 84.7853 114.935 85.014 113.881 85.014L110.101 85V77.468H112.271V79.876H114.175ZM113.685 83.46C114.105 83.4693 114.427 83.3807 114.651 83.194C114.875 83.0073 114.987 82.7273 114.987 82.354C114.987 81.99 114.875 81.724 114.651 81.556C114.436 81.388 114.114 81.2993 113.685 81.29L112.271 81.276V83.46H113.685Z" fill="#4081FF"/>
<defs>
<filter id="filter0_d" x="0" y="0" width="163" height="163" filterUnits="userSpaceOnUse" color-interpolation-filters="sRGB">
<feFlood flood-opacity="0" result="BackgroundImageFix"/>
<feColorMatrix in="SourceAlpha" type="matrix" values="0 0 0 0 0 0 0 0 0 0 0 0 0 0 0 0 0 0 127 0"/>
<feOffset/>
<feGaussianBlur stdDeviation="15"/>
<feColorMatrix type="matrix" values="0 0 0 0 0.25 0 0 0 0 0.505 0 0 0 0 1 0 0 0 0.14 0"/>
<feBlend mode="normal" in2="BackgroundImageFix" result="effect1_dropShadow"/>
<feBlend mode="normal" in="SourceGraphic" in2="effect1_dropShadow" result="shape"/>
</filter>
</defs>
</svg>
